<svg width="170" height="170" viewBox="0 0 170 170" fill="none" xmlns="http://www.w3.org/2000/svg">
<g clip-path="url(#clip0_808_12)">
<path fill-rule="evenodd" clip-rule="evenodd" d="M16.6016 0H153.398C162.567 0 170 7.43277 170 16.6016V153.398C170 162.567 162.567 170 153.398 170H16.6016C7.43277 170 0 162.567 0 153.398V16.6016C0 7.43277 7.43277 0 16.6016 0ZM105.234 151.899V135.277C108.247 137.806 111.521 139.701 115.055 140.965C118.589 142.229 122.157 142.861 125.759 142.861C127.873 142.861 129.717 142.671 131.294 142.29C132.87 141.909 134.186 141.381 135.243 140.706C136.299 140.03 137.088 139.234 137.607 138.316C138.127 137.399 138.387 136.403 138.387 135.33C138.387 133.875 137.971 132.576 137.14 131.434C136.308 130.291 135.174 129.235 133.736 128.265C132.299 127.296 130.592 126.361 128.618 125.46C126.643 124.56 124.512 123.642 122.226 122.707C116.406 120.283 112.067 117.323 109.209 113.825C106.351 110.328 104.922 106.103 104.922 101.151C104.922 97.2725 105.701 93.9396 107.26 91.1522C108.819 88.3645 110.941 86.0705 113.626 84.2695C116.311 82.4689 119.42 81.1444 122.953 80.2961C126.487 79.4478 130.228 79.0234 134.178 79.0234C138.058 79.0234 141.496 79.2572 144.493 79.7247C147.489 80.1922 150.252 80.9107 152.781 81.8802V97.4113C151.534 96.5454 150.174 95.7837 148.702 95.1256C147.229 94.4679 145.714 93.9223 144.155 93.4894C142.596 93.0567 141.046 92.7363 139.504 92.5285C137.962 92.321 136.499 92.217 135.113 92.217C133.208 92.217 131.476 92.3987 129.917 92.7622C128.358 93.1258 127.041 93.6368 125.967 94.2946C124.894 94.9526 124.062 95.7402 123.473 96.6579C122.884 97.5757 122.59 98.606 122.59 99.7485C122.59 100.995 122.919 102.112 123.577 103.099C124.235 104.086 125.17 105.021 126.383 105.904C127.596 106.787 129.068 107.652 130.8 108.501C132.532 109.35 134.49 110.224 136.672 111.124C139.651 112.371 142.328 113.695 144.701 115.098C147.074 116.5 149.109 118.085 150.806 119.851C152.504 121.617 153.803 123.634 154.704 125.902C155.604 128.17 156.055 130.81 156.055 133.823C156.055 137.979 155.266 141.467 153.69 144.289C152.114 147.112 149.975 149.397 147.273 151.146C144.571 152.895 141.427 154.15 137.841 154.912C134.256 155.674 130.471 156.055 126.487 156.055C122.399 156.055 118.511 155.708 114.821 155.016C111.132 154.323 107.936 153.285 105.234 151.899ZM98.6133 94.3241H77.2902V155.059H60.3985V94.3241H39.1797V80.6836H98.6133V94.3241Z" fill="#3178C6"/>
</g>
<defs>
<clipPath id="clip0_808_12">
<rect width="170" height="170" fill="white"/>
</clipPath>
</defs>
</svg>
